# File created by Blade
# Date/Time:  Tue Sep 23 19:15:59 2014
# Frame Rate: 120.000 fps
#------------------------------------------------------
:FULLY-SPECIFIED
:DEGREES
2389
root -7.955144 32.379983 -1.995091 38.602672 9.148242 0.139541
Spine -41.430158 -6.814012 8.075665
Head -2.087580 -0.671166 -9.929551
LeftShoulder -21.434246 42.687505 23.305092
LeftArm 55.253708 -47.355743 -56.617531
LeftForeArm 97.838627 0.000000 -17.766443
LeftHand -8.052083 0.000000 61.952571
LeftHandThumb1 -26.253704 0.000000 33.147579
RightShoulder -16.097654 -41.768389 -27.257548
RightArm 45.695918 28.793003 46.911001
RightForeArm 14.732473 -0.000000 -0.987563
RightHand 13.267329 -0.000000 0.765375
RightHandThumb1 -24.326973 -0.000000 -32.862282
LeftUpLeg -33.197533 5.877583 4.392572
LeftLeg -0.635477 -0.000000 0.000000
LeftFoot -2.829380 -3.497980 -4.049844
LeftToeBase -1.145835 -0.000000 0.000000
RightUpLeg -30.158105 -8.961560 3.750350
RightLeg -4.199048 -0.000000 0.000000
RightFoot -8.785124 -3.532041 17.071315
RightToeBase 15.295185 -0.000000 -0.000000
2390
root -7.946644 32.389800 -2.019499 38.630278 9.026536 0.123069
Spine -41.372673 -6.709158 8.018684
Head -2.115179 -0.647024 -9.887072
LeftShoulder -21.417551 42.815473 23.326653
LeftArm 55.447028 -47.331214 -56.939407
LeftForeArm 97.914011 0.000000 -17.830488
LeftHand -7.838072 0.000000 61.836567
LeftHandThumb1 -26.253704 0.000000 33.147579
RightShoulder -16.055289 -41.876597 -27.247389
RightArm 45.978746 28.729811 47.245916
RightForeArm 14.664727 0.000000 -1.015373
RightHand 13.290393 -0.000000 1.080081
RightHandThumb1 -24.326973 -0.000000 -32.862282
LeftUpLeg -33.229964 5.869060 4.386288
LeftLeg -0.664895 -0.000000 0.000000
LeftFoot -2.728563 -3.409009 -4.053859
LeftToeBase -1.181461 -0.000000 0.000000
RightUpLeg -30.377813 -9.010523 3.779266
RightLeg -3.949830 -0.000000 0.000000
RightFoot -8.790955 -3.365188 17.050950
RightToeBase 15.310112 -0.000000 -0.000000
2391
root -7.934465 32.399448 -2.047465 38.638474 8.895363 0.120985
Spine -41.279040 -6.606829 7.954227
Head -2.155115 -0.611775 -9.862729
LeftShoulder -21.422440 42.866739 23.348934
LeftArm 55.660746 -47.300400 -57.289867
LeftForeArm 97.660474 -0.000000 -17.953648
LeftHand -7.240522 -0.000000 61.551909
LeftHandThumb1 -26.253704 0.000000 33.147579
RightShoulder -15.977989 -41.893351 -27.238420
RightArm 46.008068 28.432859 47.220543
RightForeArm 14.939570 -0.000000 -0.988062
RightHand 13.289718 -0.000000 1.274322
RightHandThumb1 -24.326973 -0.000000 -32.862282
LeftUpLeg -33.276949 5.855494 4.367610
LeftLeg -0.620846 -0.000000 0.000000
LeftFoot -2.704992 -3.392749 -4.192903
LeftToeBase -1.062549 -0.000000 0.000000
RightUpLeg -30.557470 -8.988462 3.732890
RightLeg -3.737933 -0.000000 0.000000
RightFoot -8.782172 -3.297517 17.021775
RightToeBase 15.348102 -0.000000 -0.000000
2392
root -7.925205 32.406352 -2.073084 38.593532 8.813862 0.088608
Spine -41.149849 -6.539496 7.950088
Head -2.160646 -0.561537 -9.847141
LeftShoulder -21.403628 42.874628 23.393268
LeftArm 55.896193 -47.329869 -57.698904
LeftForeArm 97.310645 -0.000000 -18.078262
LeftHand -6.603807 -0.000000 61.175187
LeftHandThumb1 -26.253704 0.000000 33.147579
RightShoulder -15.872779 -41.866652 -27.326051
RightArm 46.101092 28.080070 47.280290
RightForeArm 15.042367 -0.000000 -1.078374
RightHand 13.061370 -0.000000 1.498064
RightHandThumb1 -24.326973 -0.000000 -32.862282
LeftUpLeg -33.302188 5.839397 4.398825
LeftLeg -0.524918 -0.000000 0.000000
LeftFoot -2.746026 -3.376383 -4.314680
LeftToeBase -0.908682 -0.000000 0.000000
RightUpLeg -30.652386 -8.958854 3.715800
RightLeg -3.579259 -0.000000 0.000000
RightFoot -8.767046 -3.251727 17.019295
RightToeBase 15.386277 -0.000000 -0.000000
2393
root -7.915060 32.411295 -2.096363 38.478697 8.755293 0.058471
Spine -40.956142 -6.494418 7.956091
Head -2.144571 -0.523549 -9.858352
LeftShoulder -21.400535 42.836038 23.446969
LeftArm 56.144378 -47.337460 -58.127956
LeftForeArm 96.071157 -0.000000 -18.175714
LeftHand -5.038938 -0.000000 60.638959
LeftHandThumb1 -26.253704 0.000000 33.147579
RightShoulder -15.741375 -41.800675 -27.416033
RightArm 46.175532 27.792951 47.311568
RightForeArm 15.217220 0.000000 -1.301300
RightHand 13.296678 0.000000 1.938547
RightHandThumb1 -24.326973 -0.000000 -32.862282
LeftUpLeg -33.273001 5.834159 4.412802
LeftLeg -0.402863 -0.000000 0.000000
LeftFoot -2.826863 -3.352532 -4.327394
LeftToeBase -0.759601 -0.000000 0.000000
RightUpLeg -30.645999 -8.934217 3.685560
RightLeg -3.461995 -0.000000 0.000000
RightFoot -8.742819 -3.224225 17.046476
RightToeBase 15.367131 -0.000000 -0.000000
2394
root -7.904331 32.414341 -2.120371 38.346964 8.770848 0.039361
Spine -40.750797 -6.532017 8.021957
Head -2.124330 -0.450423 -9.869805
LeftShoulder -21.467356 42.858421 23.374147
LeftArm 56.582615 -47.486626 -58.627887
LeftForeArm 95.875655 -0.000000 -18.485311
LeftHand -4.488302 -0.000000 60.385857
LeftHandThumb1 -26.253704 0.000000 33.147579
RightShoulder -15.577174 -41.678064 -27.545381
RightArm 46.263442 27.566579 47.379178
RightForeArm 15.401584 -0.000000 -1.544302
RightHand 13.072606 -0.000000 2.501000
RightHandThumb1 -24.326973 -0.000000 -32.862282
LeftUpLeg -33.255834 5.756563 4.467227
LeftLeg -0.246591 -0.000000 0.000000
LeftFoot -2.919153 -3.321220 -4.334515
LeftToeBase -0.710226 -0.000000 0.000000
RightUpLeg -30.587724 -8.963564 3.675241
RightLeg -3.399246 -0.000000 0.000000
RightFoot -8.727746 -3.190230 17.056208
RightToeBase 15.390336 -0.000000 -0.000000
